<?xml version="1.0" encoding="utf-8"?>
<!-- Generator: Adobe Illustrator 27.0.1, SVG Export Plug-In . SVG Version: 6.00 Build 0)  -->
<svg version="1.1" id="Capa_1" xmlns="http://www.w3.org/2000/svg" xmlns:xlink="http://www.w3.org/1999/xlink" x="0px" y="0px"
	 viewBox="0 0 220 42" style="enable-background:new 0 0 220 42;" xml:space="preserve">
<style type="text/css">
	.st0{fill:#FFFFFF;}
</style>
<g>
	<g>
		<path class="st0" d="M10.17,41L1,31.87l8.93-8.43l1.33,1.3l-7.59,7.16l6.51,6.48l8.26-8.06c0.58-0.54,0.85-1.09,0.86-1.69
			c0.01-1.14-0.99-2.11-1-2.12L1,9.63l9.08-8.62l17.3,16.41c2.3,2.16,4.08,0.57,4.16,0.5l8.56-7.87l-6.54-6.46l-8.37,7.93l-1.34-1.3
			L33.59,1l9.21,9.1l-9.94,9.14c-1.1,1.01-3.93,2.2-6.81-0.52L10.08,3.58l-6.4,6.07l15.97,15.59c0.05,0.05,1.56,1.49,1.55,3.4
			c0,1.1-0.48,2.1-1.42,2.98L10.17,41z"/>
		<path class="st0" d="M33.07,40.87l-9.49-9.1l9.49-9.1l9.49,9.1L33.07,40.87z M26.27,31.77l6.8,6.52l6.8-6.52l-6.8-6.52
			L26.27,31.77z"/>
	</g>
	<polygon class="st0" points="70.86,27.32 68.25,27.32 63.07,21.62 60.37,24.07 60.37,27.32 58.36,27.32 58.36,14.66 60.37,14.66 
		60.37,21.69 67.98,14.66 70.76,14.66 64.49,20.34 	"/>
	<rect x="99.94" y="14.66" class="st0" width="2.01" height="12.66"/>
	<rect x="133.14" y="14.66" class="st0" width="2.01" height="12.66"/>
	<polygon class="st0" points="176.65,27.32 166.21,27.32 166.21,14.66 176.56,14.66 176.56,16.38 168.21,16.38 168.21,20.1 
		175.72,20.1 175.72,21.81 168.21,21.81 168.21,25.61 176.65,25.61 	"/>
	<polygon class="st0" points="219,27.32 216.53,27.32 212.12,22.21 207.74,27.32 205.28,27.32 210.91,20.88 205.46,14.66 
		207.94,14.66 212.16,19.53 216.36,14.66 218.82,14.66 213.4,20.86 	"/>
</g>
</svg>
