<?xml version="1.0" encoding="utf-8"?>
<!-- Generator: Adobe Illustrator 28.0.0, SVG Export Plug-In . SVG Version: 6.00 Build 0)  -->
<svg version="1.1" xmlns="http://www.w3.org/2000/svg" xmlns:xlink="http://www.w3.org/1999/xlink" x="0px" y="0px"
	 viewBox="0 0 513.3 108.9" style="enable-background:new 0 0 513.3 108.9;" xml:space="preserve">
<style type="text/css">
	.st0{fill:#FFFFFF;}
</style>
<g id="Capa_11">
</g>
<g id="Capa_2">
	<g>
		<path class="st0" d="M59.2,26.4l3.4,3.4L83.4,9.3L99.7,26L78.4,46.4c-0.8,0.7-4.9,4-10.3-1.3L24.9,2.4L2.2,24.9l43.2,44
			c0,0,2.5,2.5,2.5,5.5c0,1.5-0.7,2.9-2.1,4.4L25.1,99.7L9,82.9l18.9-18.6l-3.4-3.4l-22.3,22l22.9,23.8l24-24.4
			c2.4-2.3,3.5-4.9,3.5-7.8c0-5-3.8-8.7-3.9-8.9L9,25L24.9,9.2l39.8,39.4c7.2,7.1,14.3,4,17.1,1.3l24.8-23.8l-23-23.7L59.2,26.4z"/>
		<path class="st0" d="M58.5,82.5l23.7,23.7l23.7-23.7L82.2,58.8L58.5,82.5z M82.2,99.4L65.3,82.5l16.9-16.9l16.9,16.9L82.2,99.4z"
			/>
		<polygon class="st0" points="164.8,38 158.3,38 140.6,56.2 140.6,38 135.8,38 135.8,71 140.6,71 140.6,62.5 146.8,56.1 158.9,71 
			165,71 150.2,52.8 		"/>
		<rect x="232.7" y="38" class="st0" width="4.7" height="33"/>
		<rect x="310.1" y="38" class="st0" width="4.7" height="33"/>
		<polygon class="st0" points="391.9,56.6 409.3,56.6 409.3,52.1 391.9,52.1 391.9,42.5 411.3,42.5 411.3,38 387.1,38 387.1,71 
			411.5,71 411.5,66.5 391.9,66.5 		"/>
		<polygon class="st0" points="497.1,54.1 509.8,38 504,38 494.2,50.6 484.4,38 478.6,38 491.3,54.2 478.2,71 483.9,71 494.2,57.7 
			504.4,71 510.2,71 		"/>
	</g>
</g>
</svg>
