<svg xmlns="http://www.w3.org/2000/svg" width="36" height="36" viewBox="0 0 36 36">
    <g fill="currentColor" fill-rule="evenodd">
        <path d="M19 17.58l2.426-2.428a.504.504 0 0 1 .713 0l.713.713a.505.505 0 0 1 0 .714l-4.278 4.281c-.081.081-.23.128-.447.14h-.254c-.217-.012-.366-.059-.447-.14l-4.278-4.281a.505.505 0 0 1 0-.714l.713-.713a.504.504 0 0 1 .713 0L17 17.58V9.5a.5.5 0 0 1 .5-.5h1a.5.5 0 0 1 .5.5v8.08zM21.569 25l6.622-7.594a1.004 1.004 0 0 1 1.402-.21c.445.327.54.953.211 1.398l-6.669 7.657c-.288.486-.84.749-1.412.749h-7.446c-.572 0-1.124-.263-1.412-.749l-6.669-7.657a.998.998 0 0 1 .211-1.399 1.004 1.004 0 0 1 1.402.211L14.431 25h7.138z"/>
        <path fill-opacity=".2" fill-rule="nonzero" d="M18 36C8.059 36 0 27.941 0 18S8.059 0 18 0s18 8.059 18 18-8.059 18-18 18zm0-2c8.837 0 16-7.163 16-16S26.837 2 18 2 2 9.163 2 18s7.163 16 16 16z"/>
    </g>
</svg>
