<?xml version="1.0" encoding="utf-8"?>
<!-- Generator: Adobe Illustrator 28.0.0, SVG Export Plug-In . SVG Version: 6.00 Build 0)  -->
<svg version="1.1" id="Layer_1" xmlns="http://www.w3.org/2000/svg" xmlns:xlink="http://www.w3.org/1999/xlink" x="0px" y="0px"
	 viewBox="0 0 48 48" style="enable-background:new 0 0 48 48;" xml:space="preserve">
<style type="text/css">
	.st0{fill:#FFFFFF;}
</style>
<circle class="st0" cx="16.6" cy="23.32" r="3.26"/>
<circle class="st0" cx="31.71" cy="23.32" r="3.26"/>
<circle class="st0" cx="20.37" cy="29.87" r="3.26"/>
<circle class="st0" cx="27.93" cy="16.78" r="3.26"/>
<circle class="st0" cx="27.93" cy="29.87" r="3.26"/>
<circle class="st0" cx="20.37" cy="16.78" r="3.26"/>
<circle class="st0" cx="40.84" cy="23.39" r="1.71"/>
<circle class="st0" cx="7.46" cy="23.39" r="1.71"/>
<circle class="st0" cx="1.39" cy="23.39" r="1.09"/>
<circle class="st0" cx="46.91" cy="23.39" r="1.09"/>
<circle class="st0" cx="32.5" cy="8.93" r="1.71"/>
<circle class="st0" cx="15.81" cy="37.85" r="1.71"/>
<circle class="st0" cx="12.77" cy="43.1" r="1.09"/>
<circle class="st0" cx="35.53" cy="3.68" r="1.09"/>
<circle class="st0" cx="15.81" cy="8.93" r="1.71"/>
<circle class="st0" cx="32.5" cy="37.85" r="1.71"/>
<circle class="st0" cx="35.53" cy="43.1" r="1.09"/>
<circle class="st0" cx="12.77" cy="3.68" r="1.09"/>
<circle class="st0" cx="24.15" cy="10.33" r="1.97"/>
<circle class="st0" cx="24.15" cy="2.54" r="1.35"/>
<circle class="st0" cx="24.15" cy="36.45" r="1.97"/>
<circle class="st0" cx="24.15" cy="44.24" r="1.35"/>
<circle class="st0" cx="12.84" cy="16.86" r="1.97"/>
<circle class="st0" cx="6.09" cy="12.96" r="1.35"/>
<circle class="st0" cx="35.47" cy="29.92" r="1.97"/>
<circle class="st0" cx="42.21" cy="33.82" r="1.35"/>
<circle class="st0" cx="12.84" cy="29.92" r="1.97"/>
<circle class="st0" cx="6.09" cy="33.82" r="1.35"/>
<circle class="st0" cx="35.47" cy="16.86" r="1.97"/>
<circle class="st0" cx="42.21" cy="12.96" r="1.35"/>
</svg>
