<?xml version="1.0" encoding="utf-8"?>
<!-- Generator: Adobe Illustrator 28.0.0, SVG Export Plug-In . SVG Version: 6.00 Build 0)  -->
<svg version="1.1" id="Layer_1" xmlns="http://www.w3.org/2000/svg" xmlns:xlink="http://www.w3.org/1999/xlink" x="0px" y="0px"
	 viewBox="0 0 48 48" style="enable-background:new 0 0 48 48;" xml:space="preserve">
<style type="text/css">
	.st0{fill:#FFFFFF;}
	.st1{fill:#009393;}
</style>
<ellipse class="st0" cx="24" cy="24" rx="16.95" ry="15.97"/>
<g>
	<path class="st1" d="M26.62,24.44c-0.87,0-1.75,0-2.62,0s-1.75,0-2.62,0V21.6C16.8,21.82,13.09,22.91,12,24
		c1.09,1.31,6.11,2.4,12,2.4s10.91-1.09,12-2.4c-1.09-1.09-4.8-1.96-9.38-2.18V24.44z"/>
	<path class="st1" d="M24,0C10.69,0,0,10.69,0,24s10.69,24,24,24s24-10.69,24-24S37.31,0,24,0z M36.44,25.53
		c0,1.53-4.15,2.62-9.82,2.84v6.76h-5.24v-6.76c-5.45-0.22-9.6-1.53-9.6-2.84v-3.05c0-1.53,4.15-2.62,9.6-2.84V16.8h-7.85v-3.93
		h20.95v3.93h-7.85v2.84c5.45,0.22,9.6,1.53,9.82,2.84V25.53z"/>
</g>
</svg>
