<?xml version="1.0" encoding="utf-8"?>
<!-- Generator: Adobe Illustrator 28.0.0, SVG Export Plug-In . SVG Version: 6.00 Build 0)  -->
<svg version="1.1" id="Layer_1" xmlns="http://www.w3.org/2000/svg" xmlns:xlink="http://www.w3.org/1999/xlink" x="0px" y="0px"
	 viewBox="0 0 48 48" style="enable-background:new 0 0 48 48;" xml:space="preserve">
<style type="text/css">
	.st0{fill:#FFFFFF;}
	.st1{fill:#FF0013;}
</style>
<ellipse class="st0" cx="24" cy="24" rx="18.96" ry="19.66"/>
<g>
	<path class="st1" d="M21.38,37.09l1.53-12.65l-9.38-7.85L21.38,37.09z"/>
	<path class="st1" d="M30.33,16.15L14.4,14.62l9.6,7.85L30.33,16.15z"/>
	<path class="st1" d="M23.35,38.18l13.09-14.84l-11.35,1.75L23.35,38.18z"/>
	<path class="st1" d="M24,0C10.69,0,0,10.69,0,24s10.69,24,24,24s24-10.69,24-24S37.31,0,24,0z M21.38,43.64L9.16,11.78l24,2.4
		l7.64,7.64L21.38,43.64z"/>
	<path class="st1" d="M27.05,22.47l9.82-1.31l-4.15-4.36L27.05,22.47z"/>
</g>
</svg>
