<?xml version="1.0" encoding="utf-8"?>
<!-- Generator: Adobe Illustrator 28.0.0, SVG Export Plug-In . SVG Version: 6.00 Build 0)  -->
<svg version="1.1" id="_x3C_Layer_x3E_" xmlns="http://www.w3.org/2000/svg" xmlns:xlink="http://www.w3.org/1999/xlink" x="0px"
	 y="0px" viewBox="0 0 48 48" style="enable-background:new 0 0 48 48;" xml:space="preserve">
<style type="text/css">
	.st0{fill:#FFFFFF;}
	.st1{fill:#42A5F5;}
	.st2{fill:#455A64;}
</style>
<circle class="st0" cx="24" cy="24" r="19.53"/>
<g id="USDC_x2C__usd_coin">
	<g id="XMLID_182_">
		<circle id="XMLID_75_" class="st1" cx="24" cy="24" r="23.2"/>
	</g>
	<g id="XMLID_55_">
		<g id="XMLID_174_">
			<path id="XMLID_677_" class="st2" d="M24,48C10.77,48,0,37.23,0,24S10.77,0,24,0s24,10.77,24,24S37.23,48,24,48z M24,1.6
				C11.65,1.6,1.6,11.65,1.6,24S11.65,46.4,24,46.4S46.4,36.35,46.4,24S36.35,1.6,24,1.6z"/>
		</g>
		<g id="XMLID_77_">
			<path id="XMLID_676_" class="st0" d="M25.95,32.8h-3.9c-2.45,0-4.45-2-4.45-4.45V28c0-0.45,0.35-0.8,0.8-0.8
				c0.45,0,0.8,0.35,0.8,0.8v0.35c0,1.57,1.28,2.85,2.85,2.85h3.9c1.57,0,2.85-1.28,2.85-2.85c0-1.26-0.85-2.38-2.06-2.74l-5.9-1.68
				c-1.9-0.56-3.23-2.32-3.23-4.29c0-2.45,2-4.45,4.45-4.45h3.9c2.45,0,4.45,2,4.45,4.45V20c0,0.45-0.35,0.8-0.8,0.8
				c-0.45,0-0.8-0.35-0.8-0.8v-0.35c0-1.57-1.28-2.85-2.85-2.85h-3.9c-1.57,0-2.85,1.28-2.85,2.85c0,1.26,0.85,2.38,2.06,2.74
				l5.9,1.68c1.9,0.54,3.23,2.3,3.23,4.27C30.4,30.8,28.4,32.8,25.95,32.8z"/>
		</g>
		<g id="XMLID_78_">
			<path id="XMLID_667_" class="st0" d="M24,36c-0.45,0-0.8-0.35-0.8-0.8V32c0-0.45,0.35-0.8,0.8-0.8c0.45,0,0.8,0.35,0.8,0.8v3.2
				C24.8,35.65,24.45,36,24,36z"/>
		</g>
		<g id="XMLID_79_">
			<path id="XMLID_127_" class="st0" d="M24,16.8c-0.45,0-0.8-0.35-0.8-0.8v-3.2c0-0.45,0.35-0.8,0.8-0.8c0.45,0,0.8,0.35,0.8,0.8
				V16C24.8,16.45,24.45,16.8,24,16.8z"/>
		</g>
		<g id="XMLID_82_">
			<g id="XMLID_83_">
				<path id="XMLID_107_" class="st0" d="M18.4,40.62c-0.1,0-0.18-0.02-0.27-0.05C11.12,38.1,6.4,31.42,6.4,24S11.12,9.9,18.13,7.42
					c0.42-0.14,0.86,0.06,1.02,0.48c0.14,0.42-0.06,0.88-0.48,1.02C12.29,11.18,8,17.25,8,24s4.29,12.82,10.67,15.07
					c0.42,0.14,0.64,0.61,0.48,1.02C19.04,40.42,18.74,40.62,18.4,40.62z"/>
			</g>
			<g id="XMLID_84_">
				<path id="XMLID_106_" class="st0" d="M29.6,40.62c-0.34,0-0.64-0.21-0.75-0.53c-0.14-0.42,0.06-0.88,0.48-1.02
					C35.71,36.82,40,30.75,40,24S35.71,11.18,29.33,8.93c-0.42-0.14-0.64-0.61-0.48-1.02c0.14-0.42,0.61-0.64,1.02-0.48
					C36.88,9.9,41.6,16.58,41.6,24s-4.72,14.1-11.73,16.58C29.78,40.61,29.7,40.62,29.6,40.62z"/>
			</g>
		</g>
	</g>
</g>
</svg>
